<svg xmlns="http://www.w3.org/2000/svg" viewBox="0 0 548.19 1008.18"><title>Asset 2</title><g id="Layer_2" data-name="Layer 2"><g id="Layer_1-2" data-name="Layer 1"><path d="M546.66,293.78q.75-1.21,1.53-2.43c-4-3.52-2.27-9.9-2.4-15.22s-6.77-11.25-9.89-6.94A42.43,42.43,0,0,0,531.47,229c5-6.52,3.6-17.06-3-22,10-10,5.87-26.79,1.07-40.12q-15.51-43.08-31-86.17l-23.19-14-6.25,8.37a8.35,8.35,0,0,1-2.74-10.69A70.88,70.88,0,0,1,436.83,24a34,34,0,0,0-21-.37c4.22-8.17.05-19.54-8.45-23a15.6,15.6,0,0,0-8.71,6.51A9.14,9.14,0,0,0,392.65,0c2.57,2.82.82,8.21-2.91,9-1.27.26-2.78.08-4.08.21a42.3,42.3,0,0,0-4.21.63A46.41,46.41,0,0,0,359,21.31a16.24,16.24,0,0,1-5.44,3.74c-3.5,1.31-6.12,2.89-8.26,6a43.72,43.72,0,0,0-4.39,9.52c-11.6-9.81-30.45-9.57-41.79.55a12.72,12.72,0,0,1,12.41-9.45c2.18-5.08-6.71-6.91-11.95-5.15Q268.79,36.9,239.12,50.17c-18.8-10.28-45.94,5.29-46.54,26.71l-12.13-11a55.81,55.81,0,0,0-37.63,35.72C141,107,140,112.87,136.46,117.34S125.61,124,121.54,120a229.36,229.36,0,0,0-43.8,88.53c-4.76,19.3-10,42.84-28.88,48.94a60,60,0,0,1-13,41.39c-6.84,8.51-16,15.12-21.75,24.41C.12,346,10.84,375.51,7.31,402,5.08,418.73-3,435.47,1.21,451.84c1.2,4.64,3.35,9,5.06,13.46,6.11,16.07,6.34,33.68,6.49,50.87l1.32,149.88c.08,8.83,2.43,20.35,11.2,21.34a34.46,34.46,0,0,1-2.46-20.95c7.86,9.87,3.11,24.11,1.9,36.67s7.87,29.22,19.6,24.59l-8.79-71.15c-.81-6.63-5.9-15.54-11.55-12l4.38-23.26L20.53,558.1c2.65,7,8.57,15.46,15.43,12.55C52.24,526,51.09,477.28,55.93,430a546.89,546.89,0,0,1,15.62-85.14,38,38,0,0,1,18-24.38l-2.58-13.29c7.87,2.7,17.46-1.53,20.78-9.16l14.4,8.06c21.69-6.74,43.57-12.84,65.45-18.94,18.91-5.27,38.12-10.58,57.74-10.41,21.24.18,41.83,6.76,62,13.28l95.74,30.87c10.94,3.52,22.43,7.4,30,16,5.73,6.53,8.54,15,11.21,23.3,13,40.1,26.11,81.56,22.32,123.55-1.26,13.9-4.37,27.77-3.21,41.68.7,8.45,3,16.68,5.23,24.85l11.55,41.82a41,41,0,0,0,3.86-32.93c-1.36-4.35-3.5-8.75-2.72-13.24.72-4.23,3.86-7.55,6.23-11.12,15-22.62-.05-56.22,15.11-78.75,1.68-2.51,3.78-5,4-8,.19-2.85-1.36-5.47-2.37-8.14-3.07-8.14-1.19-17.21.72-25.69C514.4,372.61,524.17,330,546.66,293.78Z"/><path d="M406,863.22c-2.5-1-5.24,1.58-6.92,3.89l-20,27.55c-2.93,4-6.05,8.22-10.58,10.28a22.31,22.31,0,0,0-4.44,2.1,12.58,12.58,0,0,0-3.43,5c-3,6.36-6.3,13.32-12.69,16.23-3.69,1.68-8.51,2.14-10.42,5.73-1.29,2.44-.72,5.63-2.3,7.9-3.71,5.3-12.61-.61-18.43,2.2-2.69,1.3-4.41,4.39-7.33,5-2.65.58-5.2-1.08-7.77-2s-6.28-.35-6.77,2.33a267.25,267.25,0,0,0-38-28.14,16.07,16.07,0,0,0-6.4-2.7c-9.36-1-13.32,12.55-22,16.1-3.19,1.3-7.47,1.63-8.68,4.85-.52,1.36-.31,3-1.13,4.18-1.27,1.84-4,1.55-6.21,1.55a15.59,15.59,0,0,0-13.58,8.2c-1.91-4.41-4.63-8.92-9.09-10.71-2.4-1-5-1-7.62-1.19a80.15,80.15,0,0,1-20.61-4.13,21.58,21.58,0,0,1-7.89-4.18c-2.15-2-3.51-4.68-5-7.18a52.13,52.13,0,0,0-18.09-17.61c-2.52-1.48-7.69-5.19-10.57-2.83-3.59,2.95.85,9.27,3,11.72,2.95,3.43,6.6,6.73,7.36,11.2.63,3.7-.71,8.1,1.83,10.87,2,2.22,6.13,2.67,6.8,5.61.39,1.72-.68,3.38-1.32,5s-.6,4,1,4.63c1,.4,2.19-.11,3.28-.33,5.06-1,8.89,4.25,11.74,8.55,10.79,16.32,27.34,28.37,45.52,35.59s37.95,9.81,57.52,9.63c24.12-.22,48.5-4.7,70-15.67s39.91-28.77,49.15-51.06c7-17,8.83-36.34,19.41-51.35,4.73-6.7,11.24-12.66,12.87-20.69.44-2.17.26-4.86-1.65-6A4.39,4.39,0,0,0,406,863.22Z"/><path d="M468.51,673.92a1.86,1.86,0,0,0-2.64-1c-1.23.55-.92,1.76-1,2.79h0c-1.31,1.6-2.11,3.2,0,4.81v.6c-.3,3.47.59,7-.49,10.46-.23.74.43,1.24,1.09,1.57-.15,2.11,1.27,2.84,2.95,2.92s2.1-1.19,2.53-2.69c.93-3.22-.14-6.2-.67-9.26C472.45,678.77,472.11,676.85,468.51,673.92Z"/><path d="M32.08,578.27c-.41-2.29-2.08-3-4.13-3-1.8.06-3.61,1.37-3,2.85,1,2.58.9,5.25,1.62,7.8.45,1.6,1.78,1.41,2.95,1.31,1.33-.11,2.64-1,2.18-2.25-.75-2,.45-3.73.2-5.67A2.78,2.78,0,0,0,32.08,578.27Z"/><path d="M471,660.7c-1.7,0-2.51.53-2.48,1.93s2.33,3.55,4,3.37c1.16-.14,2.46-.83,2.19-2A4.26,4.26,0,0,0,471,660.7Z"/><path d="M413.5,857.53a4,4,0,0,0-4.17-4.28,3,3,0,0,0-2.59,2.2c-.43,1.21.46,1.79,1.62,1.91v.6c-1,1.52-1,3,.84,3.61a2.86,2.86,0,0,0,4-2.4h0A2.53,2.53,0,0,0,413.5,857.53Z"/><path d="M465.9,709.24a6,6,0,0,0,.42-.61c1.06-1.83.23-4.14-.78-6a9,9,0,0,0-2.71-3.3c-6.59-4.35-4.25,8.9-2.73,11.58a1.72,1.72,0,0,1,.34,1.09c-.17,1.12-1.91.74-2.91,1.27a1.86,1.86,0,0,0-.61,2.42,3,3,0,0,0,2.23,1.44,2.36,2.36,0,0,1,1.18.35c.81.69-.12,2-1.14,2.31s-2.23.2-3,1a3.58,3.58,0,0,0-.55,2.83,46.54,46.54,0,0,1-.18,9.14,8.41,8.41,0,0,1-.68,2.76c-.57,1.16-1.62,2.51-.83,3.53s2.35.35,3.4-.36l2.79-1.89a5,5,0,0,0,1.63-1.52,3.4,3.4,0,0,0-.14-3.1,16.13,16.13,0,0,0-1.89-2.62,2.26,2.26,0,0,1-.55-1.06c-.17-1.13,1.17-1.89,2.31-2s2.39.13,3.33-.51c1.31-.88,1.25-2.79,1.05-4.35l-1-7.87a5.83,5.83,0,0,1,.24-3.42A7,7,0,0,1,465.9,709.24Z"/><path d="M473.12,655.39c-1-.07-1.39.86-1.38,1.61a1.92,1.92,0,0,0,2,2.11c1,0,1.53-.79,1.69-1.77A2.34,2.34,0,0,0,473.12,655.39Z"/><path d="M107.33,889.12l.09.11a7.73,7.73,0,0,0,2.56,2.21,1.51,1.51,0,0,0,2.19-1.15c.17-1.29-.83-2.64-1.61-3.8a27.26,27.26,0,0,1-3.31-7.51,9.74,9.74,0,0,0-1.72-3.85c-.68-.74-1.6-1.12-2.1-2.06s-.34-2.28-.67-3.42c-.44-1.52-1.31-1.63-2.24-2.23s-1.22-2-1.43-3.1c-.54-2.69-1-5.5-2.3-7.91a5,5,0,0,0-1.21-1.58,1.28,1.28,0,0,0-1.5-.24,2.17,2.17,0,0,0-.62,1.46,14.81,14.81,0,0,0,.51,5.59c.48,1.88,1.17,3.72,1.79,5.57,1.31,3.93,2.34,8,4.18,11.69A48.62,48.62,0,0,0,107.33,889.12Z"/></g></g></svg>